<?xml version="1.0" standalone="no"?>
<!DOCTYPE svg PUBLIC "-//W3C//DTD SVG 20010904//EN"
 "http://www.w3.org/TR/2001/REC-SVG-20010904/DTD/svg10.dtd">
<svg version="1.0" xmlns="http://www.w3.org/2000/svg"
 width="512.000000pt" height="512.000000pt" viewBox="0 0 512.000000 512.000000"
 preserveAspectRatio="xMidYMid meet">
<metadata>
Created by potrace 1.14, written by Peter Selinger 2001-2017
</metadata>
<g transform="translate(0.000000,512.000000) scale(0.100000,-0.100000)"
fill="#000000" stroke="none">
<path d="M895 5105 c-113 -21 -117 -22 -193 -50 -354 -129 -619 -445 -687
-821 -22 -122 -21 -3232 1 -3349 42 -224 141 -414 297 -569 161 -161 345 -258
572 -300 117 -22 3228 -23 3349 -1 383 69 696 335 826 700 19 52 32 106 49
190 7 32 10 628 10 1650 0 1532 0 1604 -19 1695 -44 224 -138 400 -294 555
-158 157 -329 249 -551 295 -86 18 -163 19 -1690 19 -1275 -1 -1614 -3 -1670
-14z m230 -850 c39 -3 86 -8 105 -10 19 -3 53 -7 75 -9 143 -15 431 -82 610
-141 231 -76 503 -202 688 -316 43 -27 82 -49 85 -49 4 0 20 -11 36 -25 16
-14 33 -25 37 -25 4 0 14 -6 21 -13 7 -7 36 -28 63 -47 49 -33 239 -185 274
-218 194 -185 257 -251 358 -372 179 -216 330 -451 448 -694 72 -150 171 -400
190 -482 3 -10 14 -50 25 -89 27 -93 77 -317 85 -380 3 -27 8 -63 11 -79 12
-70 26 -254 28 -361 l1 -90 -342 -1 -341 0 0 50 c-1 133 -34 406 -65 541 -78
337 -201 622 -392 910 -213 321 -471 576 -795 787 -126 82 -121 79 -277 157
-351 175 -743 271 -1144 282 l-55 2 1 341 c1 188 3 342 4 343 1 3 178 -5 266
-12z m15 -1171 c426 -69 753 -205 1068 -444 193 -146 357 -317 501 -523 33
-48 61 -89 61 -91 0 -2 17 -33 38 -67 81 -134 194 -410 227 -554 14 -61 16
-71 30 -140 24 -126 37 -243 39 -360 l1 -50 -339 -1 c-230 0 -339 3 -342 10
-1 6 -6 45 -9 86 -27 380 -192 741 -455 1000 -95 93 -127 120 -200 170 -36 25
-67 47 -70 50 -16 16 -256 138 -285 145 -5 1 -21 7 -35 12 -116 48 -309 84
-500 92 -14 1 -16 42 -16 342 l-1 342 126 -7 c69 -3 142 -8 161 -12z m285
-1319 c113 -22 248 -131 303 -245 39 -79 51 -140 47 -234 -11 -243 -227 -439
-473 -430 -351 13 -552 372 -388 691 9 17 43 58 75 91 112 115 269 160 436
127z"/>
</g>
</svg>
